HIERARCHY
ROOT pelvis
{
  OFFSET 0 100 0
  CHANNELS 6 Xposition Yposition Zposition Zrotation Xrotation Yrotation
  JOINT pelvis_right_femur
  {
    OFFSET -10.78128 -3.44521 -0.5502486
    CHANNELS 3 Zrotation Xrotation Yrotation
    JOINT right_femur_tibia
    {
      OFFSET -0.8047443 -44.0398 -0.1307829
      CHANNELS 3 Zrotation Xrotation Yrotation
      JOINT right_tibia_foot
      {
        OFFSET 3.006224 -47.83518 -5
        CHANNELS 3 Zrotation Xrotation Yrotation
        End Site
        {
          OFFSET 0 -5 15
        }
      }
    }
  }
  JOINT pelvis_left_femur
  {
    OFFSET 10.78128 -3.44521 -0.5502486
    CHANNELS 3 Zrotation Xrotation Yrotation
    JOINT left_femur_tibia
    {
      OFFSET 0.8047443 -44.0398 -0.1307829
      CHANNELS 3 Zrotation Xrotation Yrotation
      JOINT left_tibia_foot
      {
        OFFSET -4.370144 -48.10324 -4.275266
        CHANNELS 3 Zrotation Xrotation Yrotation
        End Site
        {
          OFFSET 0 -5 15
        }
      }
    }
  }
  JOINT pelvis_spine1
  {
    OFFSET 0 6.468898 -3.129235
    CHANNELS 3 Zrotation Xrotation Yrotation
    JOINT spine1
    {
      OFFSET 0 23.15396 4.99043
      CHANNELS 3 Zrotation Xrotation Yrotation
      JOINT spine2
      {
        OFFSET 0 20.79997 -5.064912
        CHANNELS 3 Zrotation Xrotation Yrotation
        JOINT neck
        {
          OFFSET 0 14.38658 9.616178
          CHANNELS 3 Zrotation Xrotation Yrotation
          End Site
          {
            OFFSET 0 20 0
          }
        }
      }
      JOINT right_manubrium
      {
        OFFSET -5.722621 16.35077 3.967754
        CHANNELS 3 Zrotation Xrotation Yrotation
        JOINT right_clavicle
        {
          OFFSET -13.16364 1.694482 -4.693211
          CHANNELS 3 Zrotation Xrotation Yrotation
          JOINT right_humerus
          {
            OFFSET -28.5034 -0.3100689 -2.792744
            CHANNELS 3 Zrotation Xrotation Yrotation
            JOINT right_radius
            {
              OFFSET -25.15693 0.02248979 -1.271978
              CHANNELS 3 Zrotation Xrotation Yrotation
              End Site
              {
                OFFSET -15 0 0
              }
            }
          }
        }
      }
      JOINT left_manubrium
      {
        OFFSET 5.722621 16.35077 3.967754
        CHANNELS 3 Zrotation Xrotation Yrotation
        JOINT left_clavicle
        {
          OFFSET 13.16364 1.694482 -4.693211
          CHANNELS 3 Zrotation Xrotation Yrotation
          JOINT left_humerus
          {
            OFFSET 29.39168 -1.063119 -2.237045
            CHANNELS 3 Zrotation Xrotation Yrotation
            JOINT left_radius
            {
              OFFSET 24.59957 -0.9528479 0.9047498
              CHANNELS 3 Zrotation Xrotation Yrotation
              End Site
              {
                OFFSET 15 -0 -0
              }
            }
          }
        }
      }
    }
  }
}
MOTION
Frames: 15
Frame Time: 0.0416666666667
0 103.5113 0 1.126154 -0.810488 0.04620974 3.001691 -16.89648 8.020805 -0 36.25856 -0 -5.27238 -16.11333 -3.46759 -7.020559 11.87213 -23.24323 -0 4.896596 -0 5.752537 -18.34642 25.07624 -3.099427 -4.062197 3.792345 3.659075 7.539854 -10.0126 0.3555863 19.5299 8.86869 4.052381 -26.65322 9.597116 6.156779 -18.78002 12.15073 82.6281 30.2771 -17.92277 -0 0 19.92072 -11.59532 10.66795 5.786798 10.4604 -22.19531 5.807504 -94.08747 18.41753 19.7608 0 0 -7.61257 11.48516 20.59469 -2.824645
0.1984589 103.6421 1.594936 0.2298265 -0.2868455 -0.05172593 4.190413 -20.0885 8.611188 -0 36.73628 -0 -5.33634 -14.84253 -3.861368 -6.232913 11.84433 -22.96059 -0 5.515401 -0 3.608621 -19.9084 24.15578 -3.088614 -3.815352 3.684525 3.725392 7.601968 -9.944042 0.3577624 19.5064 9.040792 4.167374 -26.87084 9.753368 6.001901 -18.67984 12.30841 83.1305 30.78318 -18.15248 -0 0 19.217 -11.37987 10.49366 5.810091 10.2033 -22.16326 5.434806 -93.56079 18.27589 19.22324 0 0 -8.924324 11.80524 19.7671 -3.183282
0.3968598 103.5174 3.580965 -0.3069069 0.3971928 -0.1354849 5.127124 -24.48747 7.739183 -0 32.94117 -0 -6.001122 -12.39776 -3.383674 -5.879442 12.14611 -21.66006 -0 5.715879 -0 4.424077 -20.93159 23.4987 -2.724754 -3.597926 3.901828 3.597415 7.954339 -9.60566 0.4830269 19.52611 8.823161 4.112582 -26.80071 9.729148 6.031237 -18.51056 12.09448 83.39959 31.54078 -18.29922 -0 0 18.28603 -10.83101 10.58076 5.628897 9.834845 -22.27387 4.742721 -93.4097 18.85222 19.33549 0 0 -10.49033 11.90513 18.83653 -2.691889
0.6069756 103.1974 5.873581 -0.7610763 1.243072 -0.1914929 6.064082 -28.2683 7.611608 -0 29.616 -0 -6.159183 -10.50005 -3.190743 -5.612916 12.32902 -20.72806 -0 5.973286 -0 4.803725 -21.93017 22.92964 -2.582022 -3.380875 3.931992 3.580871 8.139 -9.435085 0.5413605 19.54111 8.799884 4.135667 -26.87361 9.794665 5.973691 -18.39258 12.07875 83.8001 32.12136 -18.52701 -0 0 17.51358 -10.48719 10.51047 5.560674 9.539388 -22.28664 4.216591 -93.06662 19.07269 19.08159 0 0 -11.80677 12.09971 18.01192 -2.635497
0.8213624 102.652 8.593823 -1.028483 2.043613 -0.1503106 6.687313 -31.58527 6.997301 -0 25.1303 -0 -6.394276 -8.351015 -2.77271 -5.523549 12.79587 -19.59006 -0 6.459006 -0 5.313753 -22.76638 22.14132 -2.365592 -3.131543 4.009137 3.534298 8.3805 -9.216611 0.6161093 19.57129 8.693929 4.114028 -26.8916 9.814776 5.926829 -18.26382 12.00455 84.22262 32.7628 -18.77392 -0 0 16.64237 -10.10134 10.47499 5.479499 9.189544 -22.30452 3.581783 -92.74669 19.4367 18.93093 0 0 -13.21946 12.22531 17.10506 -2.394075
1.035532 101.9491 11.80204 -1.221567 2.823909 0.04272936 7.142873 -34.16776 6.351789 -0 20.59662 -0 -6.573783 -6.292208 -2.380191 -5.492346 13.4544 -18.47216 -0 7.420967 -0 5.309011 -23.42451 21.03594 -2.179336 -2.867299 4.037286 3.516464 8.577219 -9.045551 0.6643213 19.58642 8.628622 4.10135 -26.9271 9.834735 5.850724 -18.13973 11.97432 84.68285 33.33561 -19.04537 -0 0 15.79953 -9.804888 10.43612 5.460729 8.861985 -22.30696 2.995478 -92.35983 19.69589 18.69437 0 0 -14.58897 12.33052 16.20952 -2.215006
1.236896 101.1978 15.59862 -1.379704 3.499169 0.4385365 7.389578 -35.76163 5.535963 -0 16.34837 -0 -6.812974 -4.336253 -2.000707 -5.447904 14.35356 -17.26099 -0 9.233202 -0 4.549855 -23.65048 19.35425 -1.957276 -2.573063 4.065707 3.494511 8.781541 -8.875966 0.7015956 19.59764 8.539631 4.069704 -26.92837 9.816057 5.762739 -18.00189 11.93538 85.17181 33.88239 -19.34071 -0 0 14.91743 -9.568346 10.43522 5.482753 8.523203 -22.31448 2.388186 -91.95595 19.9719 18.47935 0 0 -15.96563 12.3521 15.28158 -1.938389
1.414808 100.566 20.0626 -1.598555 4.055498 1.056029 7.590878 -36.15072 4.841169 -0 13.23131 -0 -7.072021 -2.748897 -1.762986 -5.264751 15.31301 -16.00942 -0 12.25648 -0 2.780733 -23.10419 17.00035 -1.714158 -2.258648 4.082529 3.472918 8.975653 -8.726451 0.716787 19.5972 8.45008 4.032076 -26.89303 9.756387 5.658721 -17.8474 11.90422 85.6727 34.35346 -19.64986 -0 0 14.03898 -9.450889 10.48397 5.568923 8.200301 -22.3359 1.808887 -91.5365 20.21465 18.26681 0 0 -17.27983 12.27159 14.35993 -1.587093
1.563064 100.2367 25.2358 -1.955427 4.422546 1.842966 7.906653 -35.18254 4.499959 -0 11.95038 -0 -7.322595 -1.731911 -1.73624 -4.819664 15.99293 -14.71973 -0 16.89269 -0 0.07174637 -21.311 14.07229 -1.442636 -1.929908 4.10623 3.435785 9.17294 -8.585857 0.7118611 19.59596 8.341459 3.983647 -26.79001 9.635651 5.545639 -17.67341 11.86921 86.16188 34.73135 -19.9564 -0 0 13.18108 -9.487589 10.59799 5.723641 7.891715 -22.37577 1.253897 -91.14052 20.46015 18.10838 0 0 -18.46234 12.04212 13.46457 -1.097278
1.688729 100.3491 31.06212 -2.471038 4.481097 2.639098 8.439976 -32.84925 4.677668 -0 12.81332 -0 -7.546243 -1.455784 -1.930093 -4.058641 15.83133 -13.44016 -0 23.39008 -0 -3.05309 -17.96103 11.08768 -1.161865 -1.604919 4.148719 3.370718 9.370362 -8.451682 0.6843115 19.6026 8.216289 3.930568 -26.59638 9.444624 5.424603 -17.49065 11.83419 86.59478 34.98158 -20.21464 -0 0 12.40966 -9.738324 10.78174 5.966203 7.609181 -22.43075 0.7512991 -90.80225 20.70127 18.03881 0 0 -19.40536 11.63458 12.6362 -0.45434
1.812929 100.9384 37.33953 -3.004739 4.028423 3.177042 9.035192 -29.23665 5.183725 -0 15.12165 -0 -7.80515 -1.986068 -2.23676 -3.129683 14.22738 -12.21089 -0 31.70298 -0 -5.709821 -13.34433 8.869247 -0.9008511 -1.30513 4.231708 3.259479 9.566919 -8.309909 0.6359827 19.63259 8.072614 3.876884 -26.28748 9.178464 5.294742 -17.3251 11.80045 86.91179 35.08846 -20.34978 -0 0 11.80876 -10.2547 11.02603 6.318221 7.353762 -22.48237 0.3185625 -90.55969 20.94028 18.10967 0 0 -20.00332 11.03326 11.90459 0.3521861
1.957984 101.9419 43.73288 -3.229031 2.884716 3.196882 9.263833 -24.42563 5.513438 -0 17.18931 -0 -8.196525 -3.349437 -2.506018 -2.425692 10.86564 -11.09038 -0 41.27907 -0 -7.165352 -8.617443 8.099703 -0.6993477 -1.053464 4.377826 3.085196 9.755496 -8.142332 0.5701792 19.6968 7.9173 3.82913 -25.85084 8.845731 5.147911 -17.21986 11.77385 87.04718 35.05433 -20.26254 -0 0 11.47961 -11.0734 11.307 6.807666 7.123064 -22.5007 -0.02623784 -90.4317 21.15616 18.35941 0 0 -20.1926 10.25866 11.27815 1.292773
2.130063 103.2628 49.90912 -2.812219 1.097391 2.665727 8.706809 -18.54821 5.261155 -0 17.45618 -0 -8.654085 -5.440296 -2.662092 -2.331666 5.932247 -10.13609 -0 50.90438 -0 -7.286738 -5.252263 8.835334 -0.5916532 -0.8655931 4.608471 2.834896 9.930108 -7.926562 0.4937084 19.79995 7.755758 3.789877 -25.28744 8.464275 4.971987 -17.22542 11.75856 86.95221 34.90353 -19.86045 -0 0 11.50684 -12.19518 11.59094 7.45673 6.904909 -22.44865 -0.2830869 -90.4152 21.32365 18.81229 0 0 -19.98123 9.362121 10.73267 2.318547
2.314942 104.7805 55.71045 -1.736055 -0.937194 1.873117 7.379534 -12.05884 4.543145 -0 15.82076 -0 -8.835025 -7.773619 -2.667452 -2.771779 -0.09416569 -9.306779 -0 58.60831 -0 -6.524362 -3.94506 10.45931 -0.5955245 -0.7465886 4.939156 2.502124 10.08815 -7.641705 0.4155291 19.93989 7.587669 3.755936 -24.60944 8.054354 4.7556 -17.38636 11.75502 86.60711 34.66615 -19.08391 -0 0 11.94139 -13.58576 11.84382 8.273463 6.680885 -22.29013 -0.4696847 -90.49437 21.42436 19.48087 0 0 -19.43208 8.405582 10.2242 3.382768
2.488033 106.2728 61.18514 -0.3939827 -2.675742 1.185649 5.807812 -5.728753 3.809777 -0 13.37591 -0 -8.390091 -9.639632 -2.412929 -3.104204 -6.751456 -8.388082 -0 62.00569 -0 -5.560859 -4.193346 12.20789 -0.71213 -0.6934064 5.380246 2.085204 10.22915 -7.269394 0.3450199 20.11392 7.40479 3.719026 -23.83298 7.63176 4.49319 -17.73362 11.75783 86.00962 34.36499 -17.90399 -0 0 12.80541 -15.19057 12.03594 9.249734 6.430247 -21.99168 -0.6127185 -90.66254 21.46312 20.38243 0 0 -18.6101 7.435317 9.712021 4.463997
